# xmcd
#
# Track frame offsets: 
#        150
#        32365
#        51814
#        83325
#        107132
#        120614
#        142869
#        186696
#        214561
#        238892
#
# Disc length: 3784 seconds
#
# Revision: 1
# Processed by: cddbd v1.5.2PL0 Copyright (c) Steve Scherf et al.
# Submitted via: ExactAudioCopyFreeDBPlugin 1.0
#
DISCID=810ec60a
DTITLE=Tadeusz Nalepa - Rawa Blues 1987
DYEAR=2007
DGENRE=Blues
TTITLE0=Hold
TTITLE1=Ten o tobie film
TTITLE2=Jedź ostrożnie nie popędzaj kół
TTITLE3=Kim bez Ciebie jestem
TTITLE4=Sen szaleńca
TTITLE5=Oni mnie wyręczą w tym
TTITLE6=Modlitwa
TTITLE7=Kiedy byłem małym chłopcem
TTITLE8=Abym mógł przed siebie iść
TTITLE9=Czerwony jak cegła
EXTD=
EXTT0=
EXTT1=
EXTT2=
EXTT3=
EXTT4=
EXTT5=
EXTT6=
EXTT7=
EXTT8=
EXTT9=
PLAYORDER=
